<svg xmlns="http://www.w3.org/2000/svg" xmlns:xlink="http://www.w3.org/1999/xlink" width="180" height="70" version="1.1" viewBox="0 0 180 70"><title>npm-logo-pixels 2</title><desc>Created with Sketch.</desc><g id="Page-1" fill="none" fill-rule="evenodd" stroke="none" stroke-width="1"><rect id="Rectangle-1" width="10" height="10" x="0" y="0" fill="#CB0000"/><rect id="Rectangle-2" width="10" height="10" x="10" y="0" fill="#CB0000"/><rect id="Rectangle-4" width="10" height="10" x="20" y="0" fill="#CB0000"/><rect id="Rectangle-3" width="10" height="10" x="30" y="0" fill="#CB0000"/><rect id="Rectangle-8" width="10" height="10" x="40" y="0" fill="#CB0000"/><rect id="Rectangle-7" width="10" height="10" x="50" y="0" fill="#CB0000"/><rect id="Rectangle-6" width="10" height="10" x="60" y="0" fill="#CB0000"/><rect id="Rectangle-5" width="10" height="10" x="70" y="0" fill="#CB0000"/><rect id="Rectangle-16" width="10" height="10" x="80" y="0" fill="#CB0000"/><rect id="Rectangle-15" width="10" height="10" x="90" y="0" fill="#CB0000"/><rect id="Rectangle-14" width="10" height="10" x="100" y="0" fill="#CB0000"/><rect id="Rectangle-13" width="10" height="10" x="110" y="0" fill="#CB0000"/><rect id="Rectangle-12" width="10" height="10" x="120" y="0" fill="#CB0000"/><rect id="Rectangle-11" width="10" height="10" x="130" y="0" fill="#CB0000"/><rect id="Rectangle-10" width="10" height="10" x="140" y="0" fill="#CB0000"/><rect id="Rectangle-9" width="10" height="10" x="150" y="0" fill="#CB0000"/><rect id="Rectangle-18" width="10" height="10" x="160" y="0" fill="#CB0000"/><rect id="Rectangle-17" width="10" height="10" x="170" y="0" fill="#CB0000"/><rect id="Rectangle-74" width="10" height="10" x="50" y="60" fill="#CB0000"/><rect id="Rectangle-73" width="10" height="10" x="60" y="60" fill="#CB0000"/><rect id="Rectangle-72" width="10" height="10" x="70" y="60" fill="#CB0000"/><rect id="Rectangle-71" width="10" height="10" x="80" y="60" fill="#CB0000"/><rect id="Rectangle-63" width="10" height="10" x="0" y="50" fill="#CB0000"/><rect id="Rectangle-62" width="10" height="10" x="10" y="50" fill="#CB0000"/><rect id="Rectangle-61" width="10" height="10" x="20" y="50" fill="#CB0000"/><rect id="Rectangle-60" width="10" height="10" x="30" y="50" fill="#CB0000"/><rect id="Rectangle-59" width="10" height="10" x="40" y="50" fill="#CB0000"/><rect id="Rectangle-58" width="10" height="10" x="50" y="50" fill="#CB0000"/><rect id="Rectangle-54" width="10" height="10" x="80" y="50" fill="#CB0000"/><rect id="Rectangle-52" width="10" height="10" x="90" y="50" fill="#CB0000"/><rect id="Rectangle-50" width="10" height="10" x="100" y="50" fill="#CB0000"/><rect id="Rectangle-49" width="10" height="10" x="110" y="50" fill="#CB0000"/><rect id="Rectangle-47" width="10" height="10" x="120" y="50" fill="#CB0000"/><rect id="Rectangle-46" width="10" height="10" x="130" y="50" fill="#CB0000"/><rect id="Rectangle-42" width="10" height="10" x="140" y="50" fill="#CB0000"/><rect id="Rectangle-41" width="10" height="10" x="150" y="50" fill="#CB0000"/><rect id="Rectangle-33" width="10" height="10" x="160" y="50" fill="#CB0000"/><rect id="Rectangle-27" width="10" height="10" x="170" y="50" fill="#CB0000"/><rect id="Rectangle-56" width="10" height="10" x="0" y="40" fill="#CB0000"/><rect id="Rectangle-53" width="10" height="10" x="30" y="40" fill="#CB0000"/><rect id="Rectangle-51" width="10" height="10" x="50" y="40" fill="#CB0000"/><rect id="Rectangle-44" width="10" height="10" x="100" y="40" fill="#CB0000"/><rect id="Rectangle-38" width="10" height="10" x="130" y="40" fill="#CB0000"/><rect id="Rectangle-32" width="10" height="10" x="150" y="40" fill="#CB0000"/><rect id="Rectangle-23" width="10" height="10" x="170" y="40" fill="#CB0000"/><rect id="Rectangle-48" width="10" height="10" x="0" y="30" fill="#CB0000"/><rect id="Rectangle-45" width="10" height="10" x="30" y="30" fill="#CB0000"/><rect id="Rectangle-43" width="10" height="10" x="50" y="30" fill="#CB0000"/><rect id="Rectangle-39" width="10" height="10" x="80" y="30" fill="#CB0000"/><rect id="Rectangle-35" width="10" height="10" x="100" y="30" fill="#CB0000"/><rect id="Rectangle-29" width="10" height="10" x="130" y="30" fill="#CB0000"/><rect id="Rectangle-25" width="10" height="10" x="150" y="30" fill="#CB0000"/><rect id="Rectangle-21" width="10" height="10" x="170" y="30" fill="#CB0000"/><rect id="Rectangle-40" width="10" height="10" x="0" y="20" fill="#CB0000"/><rect id="Rectangle-37" width="10" height="10" x="30" y="20" fill="#CB0000"/><rect id="Rectangle-34" width="10" height="10" x="50" y="20" fill="#CB0000"/><rect id="Rectangle-30" width="10" height="10" x="80" y="20" fill="#CB0000"/><rect id="Rectangle-28" width="10" height="10" x="100" y="20" fill="#CB0000"/><rect id="Rectangle-24" width="10" height="10" x="130" y="20" fill="#CB0000"/><rect id="Rectangle-22" width="10" height="10" x="150" y="20" fill="#CB0000"/><rect id="Rectangle-20" width="10" height="10" x="170" y="20" fill="#CB0000"/><rect id="Rectangle-36" width="10" height="10" x="0" y="10" fill="#CB0000"/><rect id="Rectangle-55" width="10" height="10" x="10" y="10" fill="#FFF"/><rect id="Rectangle-55" width="10" height="10" x="60" y="10" fill="#FFF"/><rect id="Rectangle-55" width="10" height="10" x="110" y="10" fill="#FFF"/><rect id="Rectangle-55" width="10" height="10" x="150" y="10" fill="#FFF"/><rect id="Rectangle-55" width="10" height="10" x="10" y="20" fill="#FFF"/><rect id="Rectangle-55" width="10" height="10" x="60" y="20" fill="#FFF"/><rect id="Rectangle-55" width="10" height="10" x="110" y="20" fill="#FFF"/><rect id="Rectangle-55" width="10" height="10" x="10" y="30" fill="#FFF"/><rect id="Rectangle-55" width="10" height="10" x="60" y="30" fill="#FFF"/><rect id="Rectangle-55" width="10" height="10" x="110" y="30" fill="#FFF"/><rect id="Rectangle-55" width="10" height="10" x="10" y="40" fill="#FFF"/><rect id="Rectangle-55" width="10" height="10" x="60" y="40" fill="#FFF"/><rect id="Rectangle-55" width="10" height="10" x="60" y="50" fill="#FFF"/><rect id="Rectangle-55" width="10" height="10" x="110" y="40" fill="#FFF"/><rect id="Rectangle-55" width="10" height="10" x="20" y="10" fill="#FFF"/><rect id="Rectangle-55" width="10" height="10" x="70" y="10" fill="#FFF"/><rect id="Rectangle-55" width="10" height="10" x="120" y="10" fill="#FFF"/><rect id="Rectangle-55" width="10" height="10" x="160" y="10" fill="#FFF"/><rect id="Rectangle-55" width="10" height="10" x="20" y="20" fill="#FFF"/><rect id="Rectangle-55" width="10" height="10" x="70" y="20" fill="#FFF"/><rect id="Rectangle-55" width="10" height="10" x="120" y="20" fill="#FFF"/><rect id="Rectangle-55" width="10" height="10" x="160" y="20" fill="#FFF"/><rect id="Rectangle-55" width="10" height="10" x="20" y="30" fill="#FFF"/><rect id="Rectangle-55" width="10" height="10" x="70" y="30" fill="#FFF"/><rect id="Rectangle-55" width="10" height="10" x="120" y="30" fill="#FFF"/><rect id="Rectangle-55" width="10" height="10" x="160" y="30" fill="#FFF"/><rect id="Rectangle-55" width="10" height="10" x="20" y="40" fill="#FFF"/><rect id="Rectangle-55" width="10" height="10" x="70" y="40" fill="#FFF"/><rect id="Rectangle-55" width="10" height="10" x="70" y="50" fill="#FFF"/><rect id="Rectangle-55" width="10" height="10" x="120" y="40" fill="#FFF"/><rect id="Rectangle-55" width="10" height="10" x="160" y="40" fill="#FFF"/><rect id="Rectangle-55" width="10" height="10" x="30" y="10" fill="#FFF"/><rect id="Rectangle-55" width="10" height="10" x="80" y="10" fill="#FFF"/><rect id="Rectangle-55" width="10" height="10" x="130" y="10" fill="#FFF"/><rect id="Rectangle-55" width="10" height="10" x="170" y="10" fill="#F8E81C"/><rect id="Rectangle-55" width="10" height="10" x="80" y="40" fill="#FFF"/><rect id="Rectangle-55" width="10" height="10" x="40" y="10" fill="#FFF"/><rect id="Rectangle-55" width="10" height="10" x="90" y="10" fill="#FFF"/><rect id="Rectangle-55" width="10" height="10" x="140" y="10" fill="#FFF"/><rect id="Rectangle-55" width="10" height="10" x="40" y="20" fill="#FFF"/><rect id="Rectangle-55" width="10" height="10" x="90" y="20" fill="#FFF"/><rect id="Rectangle-55" width="10" height="10" x="140" y="20" fill="#FFF"/><rect id="Rectangle-55" width="10" height="10" x="40" y="30" fill="#FFF"/><rect id="Rectangle-55" width="10" height="10" x="90" y="30" fill="#FFF"/><rect id="Rectangle-55" width="10" height="10" x="140" y="30" fill="#FFF"/><rect id="Rectangle-55" width="10" height="10" x="40" y="40" fill="#FFF"/><rect id="Rectangle-55" width="10" height="10" x="90" y="40" fill="#FFF"/><rect id="Rectangle-55" width="10" height="10" x="140" y="40" fill="#FFF"/><rect id="Rectangle-31" width="10" height="10" x="50" y="10" fill="#CB0000"/><rect id="Rectangle-26" width="10" height="10" x="100" y="10" fill="#CB0000"/><rect id="Rectangle-19" width="10" height="10" x="170" y="10" fill="#CB0000"/></g></svg>