<svg xmlns="http://www.w3.org/2000/svg" xmlns:xlink="http://www.w3.org/1999/xlink" id="Layer_1" x="0" y="0" enable-background="new 0 0 12 12" version="1.1" viewBox="0 0 12 12" xml:space="preserve"><path fill="#444" d="M5.7,1.1l5,5c0.1,0.1,0.2,0.3,0.2,0.4c0,0.1,0,0.2-0.2,0.4l-3.9,3.9c-0.1,0.1-0.3,0.2-0.4,0.2	c-0.1,0-0.2,0-0.4-0.2l-5-5V1.1H5.7 M6.2,0H0v6.2l5.3,5.3C5.7,11.8,6.1,12,6.5,12c0.4,0,0.8-0.2,1.2-0.5l3.9-3.9	c0.6-0.6,0.6-1.7,0-2.3L6.2,0L6.2,0z M4.1,2.7c-0.8,0-1.4,0.6-1.4,1.4c0,0.8,0.6,1.4,1.4,1.4c0.8,0,1.4-0.6,1.4-1.4	C5.5,3.3,4.8,2.7,4.1,2.7z M4.1,4.4c-0.2,0-0.3-0.1-0.3-0.3c0-0.2,0.1-0.3,0.3-0.3c0.2,0,0.3,0.1,0.3,0.3C4.4,4.2,4.2,4.4,4.1,4.4z"/></svg>