<svg xmlns="http://www.w3.org/2000/svg" xmlns:xlink="http://www.w3.org/1999/xlink" id="Layer_1" x="0" y="0" enable-background="new 0 0 20 20" version="1.1" viewBox="0 0 20 20" xml:space="preserve"><path fill="#444" fill-rule="evenodd" d="M11.4,14.4C11,14.8,10.7,15,10.1,15c-0.6,0-0.9-0.2-1.3-0.5L4,9.3	C3.4,8.7,3.4,7.9,4,7.4l0,0c0.5-0.5,1.4-0.5,2,0l3.8,2.7l7.9-9.7C17.1,0.1,16.6,0,16,0H4C1.8,0,0,1.8,0,4v12c0,2.2,1.8,4,4,4h12	c2.2,0,4-1.8,4-4V4c0-0.6-0.1-1.1-0.3-1.6L11.4,14.4z" clip-rule="evenodd"/></svg>