<svg xmlns="http://www.w3.org/2000/svg" xmlns:xlink="http://www.w3.org/1999/xlink" id="Layer_1" x="0" y="0" enable-background="new 0 0 177.6 200" version="1.1" viewBox="0 0 177.6 200" xml:space="preserve"><g><path fill="#444" d="M163.6,34.4L100.8,2.7c-7.5-3.6-16.1-3.6-23.6,0l-63,31.7C5.6,38.8,0,47.7,0,57.2v85.5 c0,9.7,5.6,18.6,14.2,22.8L77,197.2c7.5,3.6,16.1,3.6,23.6,0l62.8-31.7c8.6-4.4,14.2-13.3,14.2-22.8V57.4 C177.8,47.7,172.2,38.8,163.6,34.4z M132.8,155.6l-44.3-29.7l-44.3,29.5l17.2-47.5L25.1,74.4h47.4l16.1-40.3l16.1,40.3H152 l-36.4,33.4L132.8,155.6z"/><polygon fill="#444" points="97 85.6 88.5 64.2 80 85.6 53.7 85.6 74.5 104.7 66.3 127.3 88.5 112.4 110.8 127.4 102.6 104.6 123.3 85.6"/></g></svg>