<svg xmlns="http://www.w3.org/2000/svg" xmlns:xlink="http://www.w3.org/1999/xlink" id="Layer_1" x="0" y="0" enable-background="new -25 -25 100 100" version="1.1" viewBox="-25 -25 100 100" xml:space="preserve"><path fill="#444" d="M25-15c22,0,40,18,40,40S47,65,25,65s-40-18-40-40S3-15,25-15 M25-25C-2.6-25-25-2.6-25,25s22.4,50,50,50	s50-22.4,50-50S52.6-25,25-25L25-25z"/><circle cx="8.6" cy="10.6" r="7.6" fill="#444"/><circle cx="41.4" cy="10.6" r="7.6" fill="#444"/><path fill="#444" d="M45,40H5c-2.8,0-5-2.2-5-5l0,0c0-2.8,2.2-5,5-5h40c2.8,0,5,2.2,5,5l0,0C50,37.8,47.8,40,45,40z"/></svg>