<svg xmlns="http://www.w3.org/2000/svg" xmlns:xlink="http://www.w3.org/1999/xlink" id="Layer_1" x="0" y="0" enable-background="new -25 -25 99.9 100" version="1.1" viewBox="-25 -25 99.9 100" xml:space="preserve"><g><path fill="#444" d="M25-25C-2.6-25-25-2.6-25,25s22.4,50,50,50s50-22.4,50-50S52.6-25,25-25z M25,65C3,65-15,47-15,25 S3-15,25-15S65,3,65,25S47,65,25,65z"/><path fill="#444" d="M49.6,25H0.4c-3.2,0-5.4,2.8-4.8,5.8C-1.6,44.6,10.4,55,25,55s26.6-10.4,29.4-24.2C55,27.8,52.8,25,49.6,25 z"/><circle cx="8.6" cy="10.6" r="7.6" fill="#444"/><circle cx="41.4" cy="10.6" r="7.6" fill="#444"/></g></svg>