<svg xmlns="http://www.w3.org/2000/svg" xmlns:xlink="http://www.w3.org/1999/xlink" id="Layer_1" x="0" y="0" enable-background="new 0 0 22 22" version="1.1" viewBox="0 0 22 22" xml:space="preserve"><path fill="#444" d="M22,8.4c-0.1-0.3-0.3-0.5-0.6-0.5l-7.3-0.2l-2.4-7.2C11.6,0.2,11.3,0,11,0c-0.3,0-0.5,0.2-0.6,0.5L8,7.7	L0.6,7.9C0.4,7.9,0.1,8.1,0,8.4c-0.1,0.3,0,0.6,0.2,0.8l5.8,4.6L4,21.1c-0.1,0.3,0,0.6,0.2,0.8C4.5,22,4.8,22,5,21.9l6-4.4l6,4.4	c0.1,0.1,0.2,0.1,0.4,0.1c0.1,0,0.3,0,0.4-0.1c0.2-0.2,0.3-0.5,0.2-0.8l-2.1-7.3l5.8-4.6C22,8.9,22.1,8.6,22,8.4z"/></svg>